# xmcd
#
# Track frame offsets: 
#        150
#        2904
#        33763
#        58611
#        76397
#        97376
#        131231
#        150539
#        172588
#        209204
#        231964
#        275472
#
# Disc length: 4020 seconds
#
# Revision: 2
# Processed by: cddbd v1.5.2PL0 Copyright (c) Steve Scherf et al.
# Submitted via: ExactAudioCopy v0.99pb4
#
DISCID=a20fb20c
DTITLE=Engerling - 25 Jahre Engerling CD 2
DYEAR=2000
DGENRE=Blues
TTITLE0=Ansage
TTITLE1=Jessica
TTITLE2=Venus in Furs
TTITLE3=Pfeif drauf
TTITLE4=Nr. 48
TTITLE5=Tagtraum früh im Park
TTITLE6=6 Tage auf dem Rad
TTITLE7=Green Manalishi
TTITLE8=Mama Wilson
TTITLE9=Cadillac
TTITLE10=Don't Want You No More/It's Not My Cross to Bear
TTITLE11=So oder so
EXTD=
EXTT0=
EXTT1=
EXTT2=
EXTT3=
EXTT4=
EXTT5=
EXTT6=
EXTT7=
EXTT8=
EXTT9=
EXTT10=
EXTT11=
PLAYORDER=
